<?xml version="1.0" encoding="UTF-8" standalone="no"?>
<!-- Created with Inkscape (http://www.inkscape.org/) -->

<svg
   width="213.80763mm"
   height="58.220989mm"
   viewBox="0 0 213.80763 58.220989"
   version="1.1"
   id="svg5"
   inkscape:version="1.1.2 (b8e25be833, 2022-02-05)"
   sodipodi:docname="Tesla Cyberquad.svg"
   xmlns:inkscape="http://www.inkscape.org/namespaces/inkscape"
   xmlns:sodipodi="http://sodipodi.sourceforge.net/DTD/sodipodi-0.dtd"
   xmlns="http://www.w3.org/2000/svg"
   xmlns:svg="http://www.w3.org/2000/svg">
  <sodipodi:namedview
     id="namedview7"
     pagecolor="#ffffff"
     bordercolor="#666666"
     borderopacity="1.0"
     inkscape:pageshadow="2"
     inkscape:pageopacity="0.0"
     inkscape:pagecheckerboard="0"
     inkscape:document-units="mm"
     showgrid="false"
     inkscape:zoom="0.32026164"
     inkscape:cx="-64.010163"
     inkscape:cy="-371.57119"
     inkscape:window-width="1920"
     inkscape:window-height="1017"
     inkscape:window-x="-8"
     inkscape:window-y="-8"
     inkscape:window-maximized="1"
     inkscape:current-layer="layer1" />
  <defs
     id="defs2">
    <clipPath
       clipPathUnits="userSpaceOnUse"
       id="clipPath842">
      <path
         d="M 0,792 H 612 V 0 H 0 Z"
         id="path840" />
    </clipPath>
    <clipPath
       clipPathUnits="userSpaceOnUse"
       id="clipPath858">
      <path
         d="M 0,792 H 612 V 0 H 0 Z"
         id="path856" />
    </clipPath>
    <clipPath
       clipPathUnits="userSpaceOnUse"
       id="clipPath870">
      <path
         d="M 0,792 H 612 V 0 H 0 Z"
         id="path868" />
    </clipPath>
    <clipPath
       clipPathUnits="userSpaceOnUse"
       id="clipPath944">
      <path
         d="M 0,792 H 612 V 0 H 0 Z"
         id="path942" />
    </clipPath>
    <clipPath
       clipPathUnits="userSpaceOnUse"
       id="clipPath976">
      <path
         d="M 0,792 H 612 V 0 H 0 Z"
         id="path974" />
    </clipPath>
    <clipPath
       clipPathUnits="userSpaceOnUse"
       id="clipPath1158">
      <path
         d="M 0,792 H 612 V 0 H 0 Z"
         id="path1156" />
    </clipPath>
    <clipPath
       clipPathUnits="userSpaceOnUse"
       id="clipPath1266">
      <path
         d="M 0,792 H 612 V 0 H 0 Z"
         id="path1264" />
    </clipPath>
    <clipPath
       clipPathUnits="userSpaceOnUse"
       id="clipPath1418">
      <path
         d="M 0,792 H 612 V 0 H 0 Z"
         id="path1416" />
    </clipPath>
    <clipPath
       clipPathUnits="userSpaceOnUse"
       id="clipPath4316">
      <path
         d="M 0,792 H 612 V 0 H 0 Z"
         id="path4314" />
    </clipPath>
  </defs>
  <g
     inkscape:label="Layer 1"
     inkscape:groupmode="layer"
     id="layer1"
     transform="translate(-3.766593,-6.132817)">
    <g
       id="g830"
       inkscape:label="Cyberquad-assembly_instructions"
       transform="matrix(0.79965298,0,0,-0.79965298,-20.652155,556.68535)"
       style="fill:#000000;fill-opacity:1">
      <g
         id="g1412"
         style="fill:#000000;fill-opacity:1">
        <g
           id="g1414"
           clip-path="url(#clipPath1418)"
           style="fill:#000000;fill-opacity:1">
          <g
             id="g1448"
             transform="translate(287.3335,665.2783)"
             style="fill:#000000;fill-opacity:1">
            <path
               d="m 0,0 c -1.804,-0.722 -3.475,-1.709 -5.164,-2.66 -0.002,0.001 -0.003,0.004 -0.006,0.005 -0.045,0.023 -0.094,0.034 -0.145,0.032 -0.034,-0.004 -0.067,-0.009 -0.101,-0.013 -0.063,-0.018 -0.119,-0.051 -0.167,-0.097 -0.019,-0.026 -0.039,-0.051 -0.058,-0.077 -0.025,-0.042 -0.03,-0.089 -0.037,-0.136 -0.971,-0.539 -1.952,-1.058 -2.973,-1.495 -1.555,-0.667 -2.903,-1.708 -4.532,-2.236 -1.782,-0.577 -3.511,-1.32 -5.266,-1.983 -0.389,-0.148 -0.534,-0.573 -0.883,-0.751 -1.584,-0.808 -3.049,-1.835 -4.709,-2.502 -1.309,-0.527 -2.541,-1.243 -4.003,-1.37 -0.3,-0.026 -0.708,-0.282 -1.006,-0.469 -0.716,-0.449 -1.21,-0.785 -1.768,-0.856 -0.178,-0.023 -0.374,-10e-4 -0.533,-0.068 -0.37,-0.157 -0.866,-0.627 -1.085,-0.345 -0.238,0.305 -0.267,1.027 -0.062,1.377 0.885,1.509 0.568,2.86 -0.247,4.253 -0.468,0.8 -0.426,1.742 -0.465,2.641 -0.037,0.853 0.056,1.72 -0.065,2.558 -0.154,1.071 0.822,1.232 1.224,1.135 0.784,-0.189 1.488,0.004 2.214,0.055 1.379,0.095 2.777,0.073 4.108,0.577 0.687,0.26 1.224,1.225 0.972,1.911 -0.624,1.7 -1.443,2.041 -3.1,1.266 -1.524,-0.713 -3.184,-0.985 -4.775,-1.479 -0.128,-0.039 -0.27,-0.083 -0.389,-0.064 l 0.012,0.102 c 0.015,0.113 -0.048,0.212 -0.136,0.282 0.102,0.057 0.181,0.155 0.189,0.302 0.048,0.84 0.034,1.686 -0.066,2.522 -0.025,0.21 -0.072,0.384 -0.145,0.552 0.016,1.489 0.025,2.978 0.168,4.455 0.135,1.382 -0.032,2.806 0.429,4.165 0.08,0.232 0.057,0.449 -0.078,0.638 l 0.009,-10e-4 c 0.243,-0.023 0.482,-0.058 0.725,-0.008 0.095,0.019 0.186,0.052 0.281,0.075 0.017,0.004 0.035,0.008 0.053,0.011 h 0.008 c 0.003,-0.002 10e-4,-10e-4 0.005,-0.004 0.031,-0.02 0.068,-0.029 0.106,-0.037 0.03,-0.034 0.061,-0.061 0.091,-0.099 0.22,-0.285 0.731,-0.374 1.128,-0.487 1.276,-0.363 2.625,-0.552 3.823,-1.084 0.976,-0.433 1.958,-0.458 2.929,-0.684 0.408,-0.095 0.816,-0.207 1.225,-0.316 0.007,-0.007 0.01,-0.009 0.018,-0.018 0.049,-0.055 0.094,-0.116 0.142,-0.173 0.105,-0.124 0.24,-0.232 0.385,-0.307 0.324,-0.168 0.689,-0.215 1.05,-0.229 0.352,-0.013 0.695,0.014 1.031,-0.111 0.377,-0.14 0.745,-0.281 1.126,-0.069 0.708,-0.187 1.417,-0.36 2.137,-0.435 1.641,-0.172 3.126,-0.836 4.711,-1.154 1.066,-0.213 2.161,-0.195 3.214,-0.569 C -7.404,6.155 -6.289,6.005 -5.266,5.505 -3.544,4.662 -1.652,4.289 0.158,3.686 0.789,3.476 1.378,3.171 2.113,3.251 2.8,3.326 3.265,2.712 3.813,2.313 2.388,1.793 1.412,0.565 0,0 m -37.563,-8.457 c -0.092,-0.475 -0.039,-0.981 -0.031,-1.472 0.027,-1.561 -0.698,-2.975 -0.872,-4.497 -0.084,-0.739 -0.027,-1.521 -0.677,-2.325 -0.362,1.763 -0.691,3.329 -0.996,4.9 -0.047,0.24 -0.075,0.477 -0.226,0.672 -1.159,1.502 -1.355,3.313 -1.537,5.097 -0.073,0.718 0.674,0.851 1.174,0.701 0.785,-0.234 1.524,-0.116 2.251,0.068 0.433,0.108 0.607,0.055 0.691,-0.361 0.186,-0.918 0.407,-1.824 0.223,-2.783 m -8.62,6.216 c -0.014,-0.17 -0.067,-0.394 -0.118,-0.52 -0.034,-0.081 -0.076,-0.156 -0.123,-0.226 -0.092,-0.037 -0.201,-0.07 -0.339,-0.095 -1.309,-0.236 -2.631,-0.056 -3.926,-0.3 -0.506,-0.096 -1.02,-0.066 -1.391,-0.59 -0.213,-0.301 -0.556,-0.214 -0.534,0.263 0.061,1.313 -0.064,2.619 0.318,3.937 0.295,1.018 0.27,2.142 0.296,3.221 0.018,0.667 0.272,1.264 0.369,1.906 0.307,2.032 0.544,4.071 0.771,6.112 0.13,0.054 0.234,0.168 0.233,0.333 l -0.003,0.729 c -10e-4,0.011 -0.006,0.017 -0.006,0.027 0.033,0.175 0.087,0.348 0.164,0.518 0.17,0.373 0.321,0.721 0.337,1.139 0.016,0.426 -0.073,0.85 -0.079,1.275 -0.003,0.251 0.008,0.502 0.026,0.753 0.072,0.135 0.187,0.22 0.324,0.289 -0.003,-0.037 -0.008,-0.072 10e-4,-0.114 0.296,-1.463 0.607,-2.923 0.931,-4.38 0.074,-0.332 0.154,-0.666 0.182,-1.005 0.017,-0.207 0.02,-0.421 -0.018,-0.627 -0.024,-0.126 -0.096,-0.253 -0.09,-0.382 0.012,-0.293 0.3,-0.61 0.402,-0.882 0.125,-0.334 0.205,-0.682 0.24,-1.036 0.011,-0.117 0.066,-0.205 0.14,-0.265 0.016,-0.094 0.036,-0.187 0.053,-0.281 -0.055,-0.059 -0.095,-0.136 -0.095,-0.241 l -0.007,-0.999 c -10e-4,-0.279 -0.042,-0.597 0.085,-0.858 0.102,-0.204 0.319,-0.316 0.352,-0.551 0.038,-0.263 -0.048,-0.545 -0.083,-0.805 -0.073,-0.544 -0.083,-1.253 0.169,-1.759 0.121,-0.243 0.413,-0.315 0.441,-0.596 0.033,-0.319 -0.043,-0.629 0.005,-0.952 0.04,-0.27 0.287,-0.318 0.484,-0.227 0.053,-0.337 0.107,-0.673 0.167,-1.007 0.09,-0.501 0.223,-0.994 0.327,-1.492 -0.001,-0.104 0.005,-0.208 -0.005,-0.312 m -23.284,-8.582 c -0.045,0.63 0.368,0.324 0.662,0.311 0.901,-0.041 1.548,-0.649 2.449,-0.923 -0.764,-0.897 -1.707,-0.3 -2.503,-0.667 -0.37,-0.171 -0.572,0.752 -0.608,1.279 m -4.133,-1.95 c -0.285,-0.284 -1.224,-0.572 -1.903,-0.505 -0.512,-0.598 -1.566,0.055 -2.258,-0.809 -0.454,-0.566 -1.822,-0.156 -1.958,0.588 -0.158,0.853 -0.811,1.278 -1.262,1.86 -0.279,0.36 -0.523,0.714 -0.596,1.132 -0.112,0.647 -0.446,1.179 -0.813,1.672 -1.291,1.735 -2.252,3.636 -3.081,5.625 -0.246,0.589 -0.676,1.241 -1.205,1.535 -0.623,0.344 -0.95,0.844 -1.366,1.338 0.022,0.081 0.024,0.17 -0.019,0.265 -0.19,0.418 -0.633,0.639 -1.035,0.863 0.099,0.208 0.168,0.424 0.129,0.61 -0.081,0.385 -0.537,0.404 -0.824,0.582 -0.291,0.181 -0.566,0.396 -0.903,0.488 -0.315,0.085 -0.65,0.056 -0.957,-0.05 -0.557,-0.193 -1.094,-0.701 -1.703,-0.696 -0.355,0.003 -0.741,-0.017 -0.831,-0.445 -0.086,-0.408 0.132,-0.915 0.342,-1.253 0.054,-0.086 0.13,-0.138 0.214,-0.162 0.75,-0.986 1.235,-2.122 1.838,-3.194 0.443,-0.79 0.994,-1.569 1.591,-2.238 1.316,-1.476 2.395,-3.09 3.369,-4.792 0.845,-1.477 1.664,-2.971 2.563,-4.416 0.354,-0.57 0.308,-0.874 -0.316,-1.064 -0.968,-0.294 -2.042,-0.565 -2.823,-1.049 -1.534,-0.948 -3.349,-0.655 -4.839,-1.494 -1.156,-0.652 -2.344,-1.229 -3.585,-1.692 -1.068,-0.4 -2.162,-0.715 -3.321,-0.658 -0.218,0.01 -0.44,0.031 -0.601,-0.114 -1.042,-0.939 -2.468,-1.016 -3.679,-1.575 -0.735,-0.34 -1.485,-0.64 -2.206,-1.042 -0.322,-0.18 -0.695,0.379 -1.085,0.537 -0.197,0.08 -0.155,0.311 -0.09,0.548 0.411,1.483 0.789,2.977 1.162,4.47 0.161,0.644 0.455,1.234 0.778,1.795 0.918,1.592 1.955,3.119 2.822,4.737 0.881,1.643 1.371,3.445 1.776,5.264 0.192,0.863 0.45,1.692 0.905,2.476 0.252,0.434 0.248,1.019 0.345,1.539 0.352,1.882 1.162,3.65 1.386,5.563 0.007,0.057 0.084,0.12 0.071,0.161 -0.54,1.63 0.744,1.872 1.762,2.29 0.267,0.11 0.696,0.246 0.86,0.12 0.996,-0.763 2.133,-0.446 3.218,-0.541 0.231,-0.021 0.461,-0.228 0.663,-0.387 1.144,-0.901 2.578,-1.201 3.849,-1.844 2.124,-1.076 4.112,-2.371 6.138,-3.601 1.239,-0.751 2.529,-1.497 3.214,-2.886 2.055,-1.026 2.105,-3.17 2.857,-4.952 0.323,-0.767 0.171,-1.62 0.764,-2.373 0.358,-0.455 0.348,-1.329 0.751,-1.932 0.085,-0.127 -0.024,-0.21 -0.108,-0.294 m -56.861,-6.929 c -0.048,-0.557 -0.391,-0.6 -0.607,-0.845 -0.338,-0.385 -0.38,0.135 -0.557,0.255 -0.77,0.521 -1.539,0.654 -2.475,0.329 -0.133,-0.047 -0.262,-0.102 -0.395,-0.151 -0.76,0.077 -1.403,-0.316 -1.997,-0.794 -0.027,-0.022 -0.055,-0.04 -0.082,-0.061 -0.803,-0.36 -1.6,-0.732 -2.405,-1.088 -0.061,-0.007 -0.115,-0.026 -0.177,-0.03 -0.399,-0.029 -0.748,-0.02 -1.086,-0.264 -0.146,-0.105 -0.259,-0.253 -0.405,-0.356 -0.186,-0.129 -0.384,-0.152 -0.603,-0.182 -0.496,-0.068 -0.893,-0.32 -1.301,-0.546 -0.364,-0.115 -0.728,-0.224 -1.098,-0.323 -1.059,-0.285 -1.857,-1.112 -2.744,-1.757 -0.728,-0.529 -1.468,-1.048 -2.207,-1.568 -0.427,-0.184 -0.843,-0.39 -1.233,-0.646 -0.282,-0.187 -0.547,-0.399 -0.882,-0.475 -0.292,-0.067 -0.553,-0.105 -0.801,-0.287 -0.321,-0.236 -0.615,-0.562 -0.915,-0.885 -0.618,-0.343 -1.218,-0.713 -1.768,-1.164 -0.147,-0.015 -0.298,-0.018 -0.461,0.008 -0.084,0.013 -0.156,-0.005 -0.221,-0.033 -0.043,0.058 -0.07,0.122 -0.077,0.174 -0.117,0.868 -0.805,1.526 -0.484,2.633 0.186,0.643 -0.167,1.546 -0.462,2.375 0.007,1.014 -0.049,2.026 -0.197,3.03 -0.043,0.295 -0.111,0.588 -0.15,0.883 -0.037,0.269 0.112,0.436 0.186,0.687 0.069,0.242 0.038,0.478 -0.013,0.72 -0.021,0.096 -0.129,0.403 -0.001,0.428 0.466,0.094 0.28,0.79 -0.174,0.728 0.23,0.996 1.239,1.501 1.957,2.167 0.959,0.89 1.932,1.765 2.9,2.644 0.861,0.78 0.416,1.559 -0.03,2.305 -0.447,0.747 -0.558,1.606 -0.882,2.392 -0.119,0.292 0.045,0.389 0.349,0.45 0.549,0.11 1.084,0.281 1.656,0.211 0.267,-0.027 0.537,-0.09 0.802,-0.071 0.321,0.024 0.436,-0.106 0.412,-0.398 -0.092,-1.187 0.004,-2.262 1.123,-3.048 0.509,-0.359 0.842,-0.601 2.23,-0.671 1.988,-0.1 3.994,0.104 5.964,-0.327 0.538,-0.119 0.973,-0.256 1.415,-0.767 0.429,-0.498 1.364,-0.626 2.107,-0.77 0.907,-0.176 1.846,-0.026 2.778,-0.117 0.768,-0.074 1.482,-0.541 2.296,-0.301 0.293,0.085 0.209,-0.239 0.205,-0.371 -0.044,-1.395 0.633,-2.689 0.51,-4.123 m -27.955,10.558 c -0.605,-0.011 -0.533,0.186 -0.733,0.48 -0.242,0.356 -0.513,0.601 -0.687,1.083 -0.36,1.001 -0.364,2.095 -0.837,3.025 -0.339,0.666 -0.635,1.445 -1.308,1.858 -0.66,0.405 -0.168,1.059 -0.478,1.6 -0.364,0.634 -0.786,1.39 -0.75,2.234 0.012,0.323 0.01,0.636 0.358,0.729 0.418,0.113 0.368,-0.249 0.428,-0.5 0.026,-0.11 0.115,-0.213 0.195,-0.3 0.193,-0.205 0.204,-0.718 0.56,-0.592 0.353,0.126 0.42,0.506 0.361,0.957 -0.073,0.55 0.009,0.93 0.911,0.765 0.902,-0.164 1.858,-0.313 2.842,-0.238 1.288,0.099 2.605,-0.121 3.903,-0.259 0.523,-0.055 0.61,-0.767 0.056,-1.182 -0.472,-0.352 -0.415,-0.642 -0.215,-1.05 0.168,-0.344 0.507,-0.469 0.802,-0.378 0.408,0.124 0.743,0.417 0.673,0.933 -0.047,0.347 0.101,0.627 0.263,0.91 0.911,-0.677 0.948,-0.655 1.43,0.352 0.083,0.174 0.176,0.339 0.293,0.448 0.214,-0.272 0.619,-0.314 0.945,-0.373 0.475,-0.086 0.933,-0.128 1.407,-0.053 0.5,-0.187 0.917,-0.492 1.381,-0.7 0.551,-0.247 0.514,0.554 0.951,0.887 0.242,-0.002 0.484,0.009 0.721,0.054 0.246,0.046 0.521,0.226 0.766,0.13 0.186,-0.072 0.327,-0.213 0.529,-0.266 0.368,-0.098 0.754,-0.029 1.123,0.031 0.21,0.034 0.433,0.082 0.646,0.05 0.23,-0.035 0.344,-0.19 0.509,-0.333 0.35,-0.305 0.748,-0.314 1.19,-0.304 0.557,0.014 1.057,-0.135 1.486,-0.502 0.031,-0.027 0.063,-0.043 0.095,-0.059 V 0.281 c -0.001,-0.015 -0.002,-0.031 -0.004,-0.046 0,-0.004 -0.006,-0.046 -0.009,-0.06 -0.012,-0.062 -0.03,-0.121 -0.05,-0.181 -0.002,-0.005 -10e-4,-0.004 -0.003,-0.007 0,-0.002 0,0 -0.001,-0.003 -0.016,-0.026 -0.028,-0.054 -0.043,-0.08 -0.008,-0.012 -0.017,-0.025 -0.025,-0.037 -0.004,-0.004 -0.027,-0.034 -0.036,-0.043 -0.021,-0.022 -0.044,-0.042 -0.067,-0.062 0.053,0.044 -0.006,0 -0.031,-0.014 -0.005,-0.003 -0.04,-0.02 -0.054,-0.028 -0.017,-0.005 -0.062,-0.02 -0.071,-0.023 -0.028,-0.008 -0.058,-0.015 -0.087,-0.021 -0.003,-0.001 -0.047,-0.009 -0.062,-0.012 -0.061,-0.009 -0.123,-0.013 -0.185,-0.018 -0.163,-0.012 -0.327,-0.024 -0.488,-0.05 -0.323,-0.052 -0.63,-0.193 -0.91,-0.357 -0.17,-0.1 -0.246,-0.345 -0.135,-0.516 0.008,-0.012 0.02,-0.019 0.028,-0.031 -0.955,-0.352 -1.96,-0.602 -2.787,-1.247 -0.152,-0.118 -0.259,-0.047 -0.402,0.017 -0.211,0.093 -0.282,0.091 -0.303,0.021 -0.003,0.003 -0.004,0.008 -0.007,0.011 -0.091,0.083 -0.243,0.148 -0.367,0.097 -0.172,-0.07 -0.315,-0.081 -0.491,-0.021 -0.22,0.075 -0.376,-0.054 -0.435,-0.224 -0.049,0.005 -0.1,0.006 -0.15,0.011 -0.395,0.037 -0.67,-0.169 -0.994,-0.357 -0.616,-0.357 -1.27,-0.634 -1.952,-0.835 -0.081,-0.024 -0.135,-0.069 -0.178,-0.121 -1.095,-0.248 -2.26,-0.336 -3.148,-1.095 -0.62,-0.53 -1.251,-0.338 -1.863,-0.256 -0.549,0.074 -1.05,-0.018 -1.382,-0.352 -0.476,-0.478 -0.975,-0.529 -1.572,-0.455 -0.898,0.112 -1.665,-0.656 -1.35,-1.467 0.187,-0.482 0.842,-0.679 1.373,-0.654 0.578,0.027 0.887,-0.157 1.031,-0.769 -0.883,0.045 -1.732,-0.124 -2.606,-0.14 m -3.815,-5.43 c -0.071,-0.307 -0.559,-0.445 -0.593,-0.868 -0.024,-0.298 -0.212,-0.208 -0.384,-0.117 -0.109,0.058 -0.221,0.082 -0.288,-0.066 -0.258,-0.573 -0.521,-0.867 -1.098,-1.194 -2.408,-1.365 -4.572,-3.073 -6.783,-4.723 -1.262,-0.94 -2.561,-1.84 -3.852,-2.854 -0.401,1.641 -0.253,3.234 -0.275,4.814 -0.008,0.557 -0.163,1.086 -0.211,1.637 -0.147,1.69 -0.089,3.378 -0.144,5.066 -0.054,1.684 -0.076,1.604 1.519,1.171 0.982,-0.267 2.042,-0.278 3.071,-0.339 1.531,-0.091 3.067,-0.116 4.557,-0.533 0.354,-0.099 0.611,0.19 1.019,0.095 1.051,-0.247 1.839,-0.913 2.613,-1.539 0.285,-0.23 0.999,0.105 0.849,-0.55 m 26.878,11.721 c 0.603,0.303 1.075,-0.167 1.632,-0.072 0.188,0.031 0.407,-0.363 0.378,-0.637 -0.029,-0.281 -0.286,-0.409 -0.535,-0.544 -0.726,-0.397 -1.574,-0.248 -2.305,-0.554 -0.665,-0.278 -1.537,0.087 -2.043,-0.692 -0.195,-0.302 -0.547,-0.023 -0.852,-0.099 -1.562,-0.384 -2.904,-1.345 -4.489,-1.631 -0.146,-0.025 -0.287,-0.073 -0.33,-0.084 -0.333,-0.012 -0.582,0.016 -0.465,0.317 0.091,0.234 0.087,0.682 0.535,0.538 0.95,-0.304 1.625,-0.041 2.286,0.729 0.393,0.457 1.15,0.558 1.738,0.798 1.498,0.613 3.006,1.206 4.45,1.931 m 4.311,-4.775 c 0.095,-0.106 0.261,-0.147 0.243,-0.336 -0.082,-0.882 0.391,-1.828 -0.371,-2.632 -0.522,-0.552 -1.617,-0.571 -2.474,-0.221 -0.985,0.401 -1.996,0.744 -2.985,1.146 -0.3,0.122 -0.458,0.571 -0.83,0.568 -0.1,-0.025 -0.197,-0.053 -0.297,-0.079 0.115,0.062 0.21,0.079 0.297,0.079 0.977,0.255 1.902,0.555 2.777,1.003 0.374,0.192 0.727,0.397 1.049,0.67 0.92,0.783 1.781,0.706 2.591,-0.198 m -48.62,2.76 c -0.082,-0.181 -0.2,-0.401 -0.353,-0.226 -0.757,0.863 -1.841,1.266 -2.694,1.987 -0.078,0.066 -0.18,0.117 -0.115,0.279 0.641,1.588 0.607,3.381 1.483,4.891 0.119,0.206 0.066,0.368 0.101,0.544 0.049,0.243 0.21,0.487 0.386,0.671 0.103,0.109 0.308,0.115 0.402,-0.129 0.281,-0.711 0.389,-1.455 0.407,-2.22 0.342,-0.667 -0.18,-1.525 0.517,-2.111 0.406,-0.34 -0.276,-0.378 -0.192,-0.802 0.179,-0.921 0.495,-1.915 0.058,-2.884 m 52.504,14.039 c 0.04,0.188 0.202,0.269 0.404,0.3 1.252,0.191 2.515,0.596 3.746,0.511 0.653,-0.044 1.502,-0.23 2.119,-0.6 0.999,-0.599 2.141,-0.794 3.168,-1.302 0.359,-0.178 0.891,-0.213 1.307,-0.28 1.22,-0.195 2.09,-1.041 3.194,-1.402 0.586,-0.191 1.188,-0.473 1.038,-1.203 -0.143,-0.701 -0.768,-1 -1.407,-1.281 -0.752,-0.33 -1.594,-0.41 -2.328,-0.802 -0.3,0.069 -0.615,0.035 -0.902,-0.148 -0.222,-0.141 -0.345,-0.25 -0.615,-0.189 -0.323,0.074 -0.505,-0.051 -0.726,-0.272 -0.362,-0.361 -0.794,-0.652 -1.264,-0.852 -0.47,-0.199 -1.02,-0.214 -1.41,-0.567 -0.048,-0.043 -0.078,-0.089 -0.097,-0.137 -0.171,-0.015 -0.349,-0.054 -0.482,-0.234 -0.522,-0.703 -1.375,-0.626 -2.083,-0.904 -0.916,-0.36 -1.975,-0.255 -2.787,-0.903 -0.079,-0.064 -0.223,-0.094 -0.324,-0.073 -0.215,0.043 -0.131,0.181 -0.096,0.337 0.189,0.852 0.085,1.772 0.509,2.562 0.202,0.376 -0.04,0.684 -0.173,0.789 -0.209,0.164 -0.378,0.333 -0.52,0.506 0.039,0.055 0.08,0.108 0.112,0.168 0.111,0.215 0.178,0.447 0.221,0.684 0.041,0.224 0.099,0.465 0.033,0.687 -0.039,0.13 -0.129,0.24 -0.246,0.307 -0.004,0.002 -0.029,0.012 -0.058,0.023 0.034,0.063 0.061,0.239 0.07,0.288 0.03,0.151 0.031,0.291 -0.017,0.44 -0.062,0.192 -0.226,0.264 -0.384,0.255 -0.713,1.076 -0.236,2.189 -0.002,3.292 M 9.918,4.056 C 9.083,4.626 8.047,4.738 7.105,5.023 5.937,5.377 4.865,5.95 3.698,6.3 2.884,6.544 2.244,7.347 1.244,7.024 1.111,6.981 0.914,7.043 0.891,7.306 0.869,7.569 0.635,7.605 0.39,7.662 -0.689,7.911 -1.801,7.838 -2.887,8.207 -4.737,8.834 -6.639,9.369 -8.56,9.72 c -1.934,0.353 -3.814,0.932 -5.762,1.211 -1.729,0.248 -3.378,0.868 -5.108,1.18 -1.073,0.194 -2.183,0.573 -3.242,0.96 -1.08,0.395 -2.231,0.264 -3.317,0.588 -2.501,0.745 -4.99,1.535 -7.578,1.966 -0.601,0.099 -1.158,0.349 -1.233,1.276 -0.054,0.656 0.238,1.919 -1.2,1.87 -0.099,-0.003 -0.216,0.326 -0.313,0.508 -0.427,0.807 -1.087,1.09 -1.861,0.791 -0.741,-0.286 -1.41,-1.409 -1.309,-2.058 0.133,-0.861 0.558,-1.69 0.332,-2.604 -1.121,0.46 -2.188,1.021 -3.458,0.774 -0.311,-0.06 -0.693,0.302 -0.945,-0.167 -0.261,-0.485 -0.191,-1.179 -0.005,-1.441 0.434,-0.608 0.697,-1.248 0.97,-1.921 0.142,-0.35 0.568,-0.926 0.938,-0.58 0.842,0.789 1.624,0.106 2.425,0.116 0.203,0.002 0.455,-0.132 0.419,-0.261 -0.172,-0.609 0.356,-0.97 0.458,-1.476 0.248,-1.223 0.825,-2.343 0.429,-3.72 -0.245,-0.851 -0.408,-1.831 -0.285,-2.8 0.069,-0.537 -0.209,-1.113 0.42,-1.502 0.164,-0.101 0.225,-0.337 0.147,-0.573 -0.287,-0.861 -0.003,-1.776 -0.215,-2.632 -0.119,-0.48 0.1,-1.267 -0.512,-1.357 -0.31,-0.047 -0.663,-0.128 -0.983,-0.186 -0.947,-0.171 -1.944,-0.297 -2.791,-0.708 -0.535,-0.26 -0.563,-0.026 -0.639,0.26 -0.289,1.092 -0.684,2.237 -0.443,3.329 0.341,1.541 -0.139,2.943 -0.422,4.373 -0.123,0.628 -0.264,1.315 -0.663,1.892 -0.663,0.96 -0.801,2.224 -0.508,3.145 0.366,1.15 0.062,2.041 -0.186,3.04 -0.464,1.877 -1.012,3.745 -0.916,5.708 0.056,1.13 -0.249,1.696 -1.283,1.923 -0.416,0.091 -0.435,0.368 -0.517,0.621 -0.118,0.365 -0.176,0.753 -0.24,1.134 -0.118,0.706 -0.66,0.922 -1.199,0.762 -1.739,-0.515 -2.916,-1.63 -3.593,-3.369 -0.509,-1.309 -0.448,-2.754 -1.125,-4.059 -0.364,0.613 -0.859,0.857 -1.568,0.997 -1.567,0.31 -2.631,-0.479 -2.608,-2.112 0.03,-2.164 1.301,-4.09 1.181,-6.285 -0.072,-1.328 1.009,-2.657 -0.05,-4.008 -0.185,-0.235 -0.22,-0.757 0.148,-1.07 0.151,-0.128 0.151,-0.302 0.194,-0.478 0.454,-1.852 0.364,-3.754 0.516,-5.631 0.098,-1.21 -0.309,-1.452 -1.476,-1.822 -2.488,-0.79 -2.647,-0.501 -1.693,-2.935 0.398,-1.017 1.369,-1.773 2.386,-1.808 1.066,-0.037 0.779,-0.574 0.747,-1.083 -0.07,-1.069 -0.086,-2.156 -0.311,-3.194 -0.27,-1.246 -0.216,-2.518 -0.631,-3.778 -0.354,-1.074 -0.808,-2.129 -1.125,-3.227 -0.492,-1.716 -0.272,-1.433 -1.95,-1.49 -0.211,-0.008 -0.425,-0.025 -0.632,0.003 -2.106,0.287 -3.942,0.97 -5.015,3.028 -0.582,1.115 -0.979,2.33 -1.761,3.344 -0.304,0.395 -0.57,0.825 -0.644,1.347 1.712,0.04 3.153,1.115 4.858,1.083 0.536,-0.01 1.032,-0.421 0.871,-0.947 -0.068,-0.224 -0.198,-0.43 -0.315,-0.636 -0.177,-0.311 -0.308,-0.64 0.103,-0.838 0.345,-0.167 0.63,0.016 0.851,0.311 0.304,0.409 0.299,0.898 0.359,1.369 1.224,-0.199 3.439,1.106 3.707,2.3 0.132,0.591 0.187,1.193 -0.464,1.823 -1.153,1.115 -2.707,1.302 -3.972,2.112 -0.562,0.36 -1.01,0.865 -1.685,1.116 -1.033,0.384 -1.983,1.042 -2.842,1.695 -0.984,0.747 -2.052,1.237 -3.148,1.685 -1.668,0.684 -1.987,1.073 -1.794,2.88 0.081,0.754 -0.148,1.355 -0.691,1.836 -0.207,0.184 -0.343,0.32 -0.406,0.628 -0.365,1.781 -0.811,3.544 -1.185,5.323 -0.448,2.127 -0.898,4.257 -0.787,6.456 0.016,0.307 0.034,0.603 0.212,0.847 0.191,0.262 0.757,0.378 0.33,0.852 -0.267,0.296 -0.491,0.697 -0.956,0.712 -0.605,0.019 -1.034,0.295 -1.475,0.706 -0.6,0.558 -1.836,0.254 -1.867,-0.428 -0.062,-1.308 -0.2,-2.656 0.037,-3.924 0.299,-1.608 0.884,-3.163 1.235,-4.776 0.017,-0.08 0.031,-0.162 0.048,-0.243 -0.22,0.118 -0.568,0.018 -0.577,-0.312 -0.013,-0.465 0.301,-0.762 0.596,-1.075 0.183,-0.193 0.236,-0.34 0.268,-0.607 0.021,-0.174 0.07,-0.334 0.135,-0.489 0.102,-0.625 0.218,-1.249 0.372,-1.867 -0.07,-0.119 -0.107,-0.259 -0.082,-0.425 0.035,-0.239 0.213,-0.333 0.321,-0.525 0.106,-0.189 0.076,-0.446 0.067,-0.653 0,-0.012 0.005,-0.024 0.006,-0.037 -1.871,0.814 -3.359,2.113 -5.096,2.978 -0.049,0.025 -0.093,0.056 -0.141,0.081 -0.043,0.072 -0.111,0.133 -0.218,0.16 -0.337,0.086 -0.494,0.535 -0.691,0.79 -0.201,0.259 -0.447,0.455 -0.78,0.501 -0.343,0.048 -0.595,-0.024 -0.899,0.187 -0.006,0.004 -0.012,0.008 -0.017,0.012 -0.272,0.192 -0.527,0.414 -0.788,0.621 -0.5,0.398 -1,0.796 -1.499,1.194 -0.42,0.334 -0.84,0.678 -1.303,0.953 -0.21,0.126 -0.429,0.229 -0.653,0.325 -0.319,0.135 -0.42,0.265 -0.602,0.539 -0.259,0.39 -0.56,0.505 -1.018,0.532 -0.702,0.042 -1.376,0.128 -2.056,0.31 -0.235,0.063 -0.461,-0.126 -0.479,-0.344 -0.999,0.757 -2.008,1.504 -2.849,2.449 -0.242,0.272 -0.539,0.46 -0.852,0.65 -0.911,0.555 -1.986,0.896 -2.574,1.899 -0.447,0.764 -1.139,0.968 -1.93,0.599 -0.496,-0.231 -0.936,-0.565 -1.563,-0.471 -0.377,0.055 -0.581,-0.298 -0.73,-0.668 -0.582,-1.443 0.419,-2.489 0.91,-3.643 0.393,-0.925 0.798,-1.867 0.515,-2.833 -0.271,-0.926 -0.116,-1.853 -0.29,-2.768 -0.192,-1.01 0.085,-2.177 -0.474,-3.034 -1.085,-1.665 -1.408,-3.588 -2.116,-5.376 -0.408,-1.03 -0.452,-2.2 -1.184,-3.112 -0.072,-0.09 -0.194,-0.25 -0.166,-0.292 0.524,-0.778 -0.219,-1.325 -0.337,-1.981 -0.127,-0.715 -0.683,-1.373 -0.289,-2.166 0.079,-0.161 -0.056,-0.318 -0.139,-0.485 -0.694,-1.395 -1.387,-2.798 -1.491,-4.392 -0.021,-0.332 -0.07,-0.626 -0.269,-0.907 -0.915,-1.301 -1.876,-2.578 -2.346,-4.134 -0.111,-0.367 -0.364,-0.433 -0.697,-0.238 -1.625,0.953 -3.338,1.727 -5.03,2.549 -0.354,0.311 -0.722,0.603 -1.119,0.859 -0.322,0.207 -0.656,0.402 -1.009,0.553 -0.121,0.052 -0.855,0.207 -0.846,0.37 0.008,0.168 -0.124,0.316 -0.277,0.364 -0.538,0.167 -1.083,0.327 -1.623,0.498 -0.437,0.215 -0.884,0.412 -1.336,0.601 -0.092,0.079 -0.181,0.163 -0.274,0.26 -0.205,0.215 -0.424,0.334 -0.719,0.38 -0.181,0.028 -0.411,-0.01 -0.615,0.002 -0.11,0.042 -0.22,0.085 -0.33,0.128 -0.183,0.174 -0.289,0.551 -0.444,0.741 -0.404,0.503 -0.984,0.766 -1.621,0.805 -0.103,0.006 -0.182,-0.024 -0.24,-0.074 -0.042,0.039 -0.079,0.087 -0.138,0.107 -0.05,0.016 -0.1,0.035 -0.149,0.055 -0.056,0.024 -0.106,0.06 -0.16,0.088 -0.314,0.54 -0.406,1.19 -0.206,1.911 0.105,0.379 0.007,0.694 -0.116,0.936 -0.849,1.687 0.039,3.112 0.617,4.587 0.098,0.253 0.35,0.17 0.538,0.237 0.126,0.044 0.252,0.09 0.378,0.135 0.096,-0.033 0.203,-0.04 0.303,0.019 0.145,0.085 0.343,-0.041 0.474,-0.111 0.24,-0.128 0.49,-0.215 0.734,-0.042 0.094,0.067 0.243,0.265 0.252,0.403 0.019,-0.002 0.037,-0.002 0.055,-0.001 0.111,0.004 0.223,0.003 0.332,0.027 0.217,0.048 0.412,0.183 0.597,0.299 0.195,0.124 0.386,0.258 0.556,0.415 0.062,0.057 0.115,0.101 0.168,0.14 0.227,0.063 0.453,0.129 0.683,0.183 0.715,0.168 1.39,0.493 2.137,0.591 0.615,0.081 1.301,0.112 1.809,0.412 1.396,0.821 2.907,1.443 4.225,2.399 0.37,0.268 0.842,0.366 1.264,0.35 0.888,-0.034 1.663,0.214 2.351,0.726 0.691,0.514 1.331,1.097 2.011,1.626 1.29,1.002 1.807,1.729 1.265,3.388 -0.424,1.299 -1.324,1.932 -2.31,2.373 -1.355,0.608 -2.734,1.156 -4.111,1.711 0.138,0.152 0.145,0.381 -0.001,0.531 -0.193,0.198 -0.436,0.342 -0.698,0.425 -0.129,0.041 -0.263,0.061 -0.397,0.067 -0.293,0.178 -0.597,0.338 -0.949,0.257 -0.031,-0.008 -0.075,-0.021 -0.122,-0.036 -0.153,0.085 -0.308,0.167 -0.466,0.245 -0.014,0.023 -0.024,0.048 -0.041,0.07 -0.064,0.081 -0.138,0.145 -0.231,0.192 -0.044,0.023 -0.114,0.06 -0.165,0.066 -0.002,0.002 -0.001,0.002 -0.002,0.004 -0.066,0.177 -0.217,0.339 -0.393,0.404 -0.211,0.079 -0.431,0.031 -0.649,0.007 -0.056,-0.005 -0.112,-0.012 -0.168,-0.018 -0.258,0.105 -0.516,0.21 -0.773,0.316 -1.011,0.419 -2.036,0.806 -3.061,1.189 -0.485,0.181 -0.974,0.361 -1.488,0.444 -0.389,0.062 -1.025,-0.057 -1.314,0.25 -0.229,0.242 -0.656,0.038 -0.644,-0.27 -0.717,0.108 -1.436,0.2 -2.155,0.288 -0.56,0.068 -0.952,0.206 -1.38,0.734 -0.5,0.617 -0.753,1.619 -1.917,1.666 -1.021,0.042 -2.678,-0.728 -2.808,-1.703 -0.1,-0.749 -0.504,-0.738 -0.98,-0.616 -0.815,0.21 -1.457,-0.227 -2.098,-0.54 -0.642,-0.313 -0.677,-1.833 -0.18,-2.328 0.954,-0.952 2.21,-1.261 3.421,-1.662 0.254,-0.085 0.392,-0.093 0.542,-0.417 0.367,-0.788 0.387,-1.657 0.586,-2.46 0.246,-0.99 0.463,-2.12 0.115,-3.182 -0.145,-0.442 -0.032,-1.109 -0.982,-0.913 -0.538,0.111 -1.032,0.375 -1.617,0.4 -0.976,0.042 -2.014,0.131 -2.889,0.515 -0.645,0.282 -1.375,0.371 -1.876,0.304 -1.134,-0.153 -2.251,0.061 -3.297,0.179 -1.61,0.179 -3.242,0.446 -4.855,0.731 -0.149,0.025 -0.417,0.088 -0.492,0.028 -0.822,-0.657 -1.742,-0.367 -2.634,-0.305 -0.414,0.029 -0.827,0.185 -1.236,0.167 -1.184,-0.052 -2.361,0.044 -3.537,0.128 -1.793,0.127 -3.582,0.338 -5.377,0.421 -0.76,0.034 -1.495,0.136 -2.185,0.393 -1.929,0.719 -3.852,1.363 -5.946,1.468 -1.189,0.06 -2.028,-0.849 -2.551,-1.789 -0.141,-0.251 -0.381,-0.583 -0.053,-0.898 0.365,-0.35 0.279,-0.824 0.319,-1.25 0.017,-0.191 -0.108,-0.281 0.179,-0.445 0.399,-0.229 0.967,-0.711 0.936,-1.034 -0.071,-0.735 0.305,-0.994 0.806,-1.234 0.241,-0.115 0.412,-0.206 0.372,-0.515 -0.062,-0.473 0.279,-0.626 0.623,-0.85 0.584,-0.379 1.249,-0.776 1.095,-1.657 -0.033,-0.188 0.09,-0.241 0.156,-0.36 0.641,-1.171 1.366,-2.31 1.358,-3.729 -0.002,-0.305 0.111,-0.666 0.295,-0.907 0.738,-0.959 0.731,-2.268 1.703,-3.194 -2.076,0.468 -4.054,0.509 -5.965,1.002 -2.332,0.601 -4.622,1.233 -6.483,2.883 -0.171,0.152 -0.322,0.199 -0.252,0.464 0.199,0.743 0.216,1.522 0.366,2.276 0.135,0.685 0.936,1.501 0.086,2.276 -0.049,0.044 0.1,0.27 0.108,0.414 0.044,0.81 0.398,1.825 0.041,2.388 -0.744,1.176 -0.577,2.28 -0.331,3.449 0.058,0.269 0.079,0.439 -0.107,0.642 -0.373,0.408 -0.513,0.879 -0.552,1.449 -0.053,0.769 -0.096,1.534 -0.127,2.296 -0.054,1.366 0.092,2.768 -0.242,4.124 -0.013,0.049 -0.033,0.125 -0.009,0.153 0.92,1.035 0.543,2.26 0.475,3.423 -0.047,0.807 -0.39,1.472 -1.056,2.036 -0.284,0.241 -0.198,0.927 -0.81,0.342 -0.017,-0.018 -0.103,0.034 -0.162,0.057 0.007,0.232 0.315,0.451 0.051,0.695 -0.258,-0.009 -0.255,-0.447 -0.571,-0.326 -0.211,0.29 0.369,0.848 -0.258,0.946 -0.999,0.157 -2.043,0.578 -3.011,-0.198 0.172,-0.15 0.43,0.001 0.525,-0.233 -0.264,-0.14 -0.918,0.122 -0.565,-0.584 -0.627,-0.224 0.117,-0.892 -0.385,-1.196 -0.11,-0.066 0.53,-0.392 0.137,-0.511 -0.833,-0.255 -0.712,-0.973 -0.969,-1.527 -0.271,-0.585 -0.098,-1.007 0.366,-1.296 0.45,-0.28 0.676,-0.45 0.406,-1.072 -0.26,-0.599 -0.22,-1.33 -0.308,-2.004 -0.169,-1.292 -0.877,-2.46 -0.908,-3.775 -0.026,-1.053 -0.595,-1.964 -0.673,-3 -0.08,-1.038 -0.276,-2.047 -0.544,-3.068 -0.286,-1.085 -0.906,-2.072 -0.956,-3.232 -0.009,-0.213 -0.097,-0.692 -0.769,-0.426 -1.02,0.406 -1.682,-0.142 -2.337,-1.144 -0.331,-0.504 0.016,-0.908 -0.128,-1.314 -0.226,-0.64 0.356,-1.065 0.365,-1.584 0.01,-0.578 0.263,-1.07 0.652,-1.205 0.467,-0.162 0.612,-0.282 0.47,-0.73 -0.014,-0.045 0.021,-0.125 0.059,-0.162 0.248,-0.242 0.118,-0.244 0.126,-0.488 0.016,-0.442 -0.41,-0.787 -0.302,-1.135 0.199,-0.648 0.272,-0.631 -0.09,-1.121 -0.166,-0.224 -0.242,-0.43 0.047,-0.603 0.303,-0.181 0.171,-0.371 0.061,-0.604 -0.193,-0.405 -0.352,-0.828 -0.511,-1.249 -0.11,-0.291 -0.099,-0.7 -0.393,-0.825 -0.414,-0.176 -0.656,0.217 -0.873,0.488 -0.775,0.965 -1.46,1.998 -2.27,2.943 -0.358,0.42 -0.794,0.758 -1.164,1.149 -0.649,0.687 -1.017,1.577 -1.646,2.21 -0.744,0.749 -1.179,1.704 -1.918,2.422 -0.246,0.239 0.174,0.678 -0.325,0.781 -0.708,0.146 -0.894,0.627 -0.783,1.287 0.036,0.213 -0.127,0.345 -0.272,0.433 -0.766,0.463 -1.249,1.275 -1.709,1.921 -0.635,0.894 -1.224,1.868 -1.865,2.786 -0.494,0.709 -1.072,1.369 -1.478,2.123 -0.19,0.354 -0.711,-0.173 -0.688,0.407 0.024,0.581 -0.155,1.021 -0.898,0.948 -0.229,-0.022 -0.361,0.117 -0.109,0.376 0.271,0.279 0.072,0.417 -0.231,0.368 -0.362,-0.059 -0.3,0.156 -0.397,0.391 -0.226,0.541 -0.005,1.565 -1.165,1.292 -0.043,-0.01 -0.182,0.156 -0.169,0.177 0.404,0.68 -0.921,1.105 -0.283,1.84 0.03,0.034 -0.255,0.367 -0.419,0.536 -0.162,0.166 -0.424,0.219 -0.514,0.48 -0.114,0.332 -0.249,0.33 -0.657,0.291 -1.053,-0.099 -2.154,0.025 -3.003,0.794 -0.476,0.43 -1.811,0.86 -2.394,0.651 -0.475,-0.169 -0.772,-0.266 -0.964,-0.974 -0.16,-0.589 -0.282,-0.775 0.21,-1.105 0.088,-0.058 0.184,-0.28 0.167,-0.295 -0.662,-0.548 0.169,-0.84 0.285,-1.246 -0.503,-0.327 -1.045,-0.129 -1.512,-0.374 -1.742,-0.912 -3.343,-2.059 -5.078,-2.984 -1.229,-0.655 -2.277,-1.655 -3.719,-1.894 -0.077,-0.013 -0.209,-0.085 -0.209,-0.13 -0.014,-0.911 -0.993,-0.401 -1.374,-0.913 -0.176,-0.235 -0.85,-0.211 -1.286,-0.548 -0.264,-0.204 -0.785,-0.921 -1.358,-0.245 -0.021,0.024 -0.23,-0.064 -0.228,-0.073 0.22,-0.989 -0.626,-0.382 -0.861,-0.597 -0.632,-0.579 -1.364,-0.94 -2.122,-1.281 -0.487,-0.219 -0.84,-0.612 -1.386,-0.816 -0.566,-0.212 -1.032,-0.786 -1.74,-0.828 -0.026,-0.001 -0.074,-0.034 -0.072,-0.044 0.23,-1.032 -0.378,-0.491 -0.766,-0.426 -0.121,0.021 -0.357,-0.07 -0.384,-0.16 -0.101,-0.317 -0.341,-0.694 -0.551,-0.688 -0.854,0.024 -1.393,-0.54 -2.063,-0.886 -0.795,-0.412 -1.635,-0.724 -2.256,-1.408 -0.04,-0.043 -0.127,-0.106 -0.147,-0.093 -0.675,0.448 -0.819,-0.074 -1.08,-0.523 -0.093,-0.162 -0.485,-0.278 -0.678,-0.216 -0.165,0.053 -0.159,0.611 -0.398,-0.014 -0.126,-0.329 -0.773,-0.599 -0.971,-0.583 -0.696,0.059 -1.131,-0.697 -1.821,-0.472 -0.032,0.011 -0.118,-0.055 -0.135,-0.101 -0.149,-0.416 -0.17,-0.45 -0.608,-0.508 -0.317,-0.043 -0.881,-0.102 -0.847,-0.282 0.139,-0.73 -0.33,-0.477 -0.661,-0.53 -0.349,-0.056 -0.713,-0.127 -1.024,-0.284 -1.207,-0.606 -2.267,-1.458 -3.453,-2.109 -0.342,-0.188 -0.877,-0.37 -0.998,-0.654 -0.219,-0.511 -0.582,-0.689 -1.005,-0.899 -0.668,-0.333 -1.193,-0.716 -1.581,-1.479 -0.409,-0.804 0.021,-1.56 -0.273,-2.298 -0.085,-0.213 0.191,-0.429 0.388,-0.559 0.476,-0.311 0.819,-0.791 1.438,-0.926 0.568,-0.124 0.846,-0.527 0.795,-1.181 -0.035,-0.465 0.075,-0.954 0.195,-1.412 0.049,-0.186 0.148,-0.353 -0.019,-0.47 -0.658,-0.462 -0.193,-0.953 -0.035,-1.413 0.114,-0.334 0.412,-0.575 0.77,-0.428 0.333,0.136 0.497,0.354 0.381,0.848 -0.257,1.095 -0.098,2.202 0.439,3.209 0.219,0.41 0.593,0.993 1.026,0.819 0.694,-0.279 1.272,-0.221 1.895,0.051 0.508,0.222 1.154,0.119 1.521,-0.007 0.91,-0.313 1.905,-0.454 2.676,-0.207 1.643,0.526 3.299,0.336 4.933,0.559 0.426,0.058 0.362,-0.523 0.733,-0.279 0.661,0.436 1.342,0.019 1.971,-0.1 0.498,-0.093 0.859,-0.013 1.325,0.204 0.017,-0.626 0.027,-0.63 0.547,-0.503 0.067,0.016 0.16,-0.086 0.235,-0.079 1.084,0.112 2.044,-0.66 3.143,-0.444 0.072,0.014 0.183,-0.028 0.236,-0.082 0.312,-0.317 1.457,-0.825 1.812,-0.671 0.319,0.137 0.347,0.223 0.468,-0.198 0.166,-0.577 0.311,-0.525 0.879,-0.177 0.251,0.153 0.517,-0.302 0.847,-0.202 -0.316,-0.826 0.242,-0.388 0.506,-0.34 0.178,0.032 0.318,0.111 0.431,-0.135 0.221,-0.474 0.663,-0.671 1.144,-0.623 0.513,0.053 0.809,-0.85 1.412,-0.282 0.043,0.041 0.092,-0.097 0.094,-0.191 0.018,-0.71 0.589,-0.54 0.972,-0.536 0.206,0.002 0.363,0.083 0.54,-0.103 0.426,-0.448 0.737,-0.201 1.002,-0.538 0.337,-0.426 1.073,-0.054 1.114,-0.747 0.012,-0.199 0.238,-0.301 0.417,-0.433 0.71,-0.521 1.992,-0.087 2.257,-1.32 0.009,-0.041 0.251,-0.094 0.326,-0.047 0.879,0.548 1.414,-0.37 1.891,-0.672 0.498,-0.314 1.509,-0.155 1.548,-1.123 0.29,0.191 0.382,-0.279 0.428,-0.222 0.4,0.489 0.594,0.071 0.925,-0.105 0.434,-0.231 0.783,-0.776 1.404,-0.544 -0.003,-0.482 0.164,-0.548 0.681,-0.707 0.526,-0.161 1.135,-0.015 1.67,-0.428 0.477,-0.369 1.199,-0.465 1.873,-0.546 0.362,-0.043 0.574,0.279 0.667,0.217 0.677,-0.461 1.355,-0.226 2.067,-0.172 0.662,0.051 0.693,0.742 1.186,0.901 -0.327,0.463 -0.098,0.972 -0.125,1.459 -10e-4,0.03 -0.102,0.086 -0.115,0.076 -0.668,-0.511 -0.632,0.348 -0.681,0.476 -0.29,0.747 -0.753,1 -1.478,0.698 -0.194,-0.081 -0.506,-0.036 -0.516,-0.03 -0.611,0.425 -1.354,0.443 -2.001,0.679 -1.289,0.468 -2.449,1.283 -3.674,1.931 -1.029,0.545 -2.087,1.09 -3.124,1.583 -1.201,0.572 -2.383,1.209 -3.558,1.818 -0.953,0.494 -1.87,1.122 -2.873,1.485 -1.415,0.511 -2.697,1.305 -4.16,1.728 -1.062,0.307 -2.081,0.835 -3.153,1.149 -0.946,0.277 -1.929,0.683 -2.811,0.827 -1.485,0.245 -2.865,1.346 -4.479,0.75 -0.703,0.805 -1.653,0.211 -2.48,0.379 -1.395,0.283 -2.88,0.112 -4.324,0.167 -1.058,0.04 -2.169,0.19 -3.256,-0.06 -0.344,-0.079 -0.897,-0.063 -1.066,0.398 -0.098,0.268 -0.294,0.845 0.442,0.684 0.109,0.881 1.048,0.651 1.505,1.102 0.305,0.3 0.927,0.604 1.253,0.484 0.574,-0.21 0.787,0.209 0.838,0.425 0.104,0.444 0.238,0.507 0.648,0.403 0.194,-0.048 0.453,0.076 0.658,0.172 0.731,0.344 1.45,0.711 2.176,1.067 0.675,0.33 1.332,0.711 2.033,0.972 0.796,0.297 1.472,0.793 2.216,1.174 0.829,0.425 1.606,0.995 2.478,1.279 0.545,0.176 0.694,0.76 1.108,0.845 0.964,0.199 1.76,0.63 2.454,1.29 0.118,0.113 0.247,0.137 0.382,0.192 0.807,0.326 1.648,0.598 2.394,1.033 1.123,0.654 2.291,1.184 3.476,1.705 1.181,0.52 2.286,1.212 3.429,1.818 0.892,0.474 1.798,0.869 2.637,1.499 0.664,0.498 1.547,0.871 2.328,1.309 1.106,0.619 2.214,1.238 3.353,1.795 0.182,0.09 0.494,0.47 0.822,-0.018 0.437,-0.649 0.952,-1.267 1.527,-1.796 1.234,-1.136 2.801,-1.852 3.954,-3.123 0.185,-0.203 0.434,-0.521 0.661,-0.73 0.755,-0.69 1.593,-1.344 2.117,-2.283 0.207,-0.37 0.348,-1.039 0.474,-1.074 0.594,-0.16 0.569,-0.578 0.701,-1.007 0.136,-0.442 0.814,-0.733 0.306,-1.35 -0.058,-0.071 0.242,-0.078 0.364,-0.145 0.881,-0.485 2.069,-0.62 2.208,-1.95 0.009,-0.074 0.103,-0.147 0.17,-0.207 1.394,-1.249 2.124,-3.014 3.416,-4.358 0.895,-0.931 1.61,-2.038 2.379,-3.085 0.713,-0.972 1.567,-1.815 1.766,-3.146 0.155,-1.039 0.252,-2.173 0.686,-3.098 0.398,-0.846 0.323,-1.609 0.261,-2.405 -0.058,-0.747 -0.447,-1.452 -0.651,-2.144 -0.261,-0.887 -0.533,-1.826 -0.737,-2.752 -0.52,-2.358 -1.127,-4.714 -2.05,-6.957 -0.226,-0.548 -0.385,-1.205 -0.75,-1.604 -0.354,-0.385 -0.884,-0.494 -0.438,-1.159 0.102,-0.151 0.049,-0.449 -0.11,-0.677 -0.689,-0.985 -1.101,-2.066 -1.177,-3.286 -0.026,-0.409 -0.215,-0.831 -0.412,-1.202 -0.653,-1.228 -1.272,-2.467 -1.083,-3.908 0.042,-0.319 0.278,-0.577 -0.12,-0.824 -0.184,-0.114 -0.043,-0.307 0.064,-0.37 0.469,-0.275 0.928,-0.513 0.423,-1.155 -0.125,-0.158 0.143,-0.318 0.221,-0.309 0.383,0.046 0.551,-0.213 0.813,-0.41 0.559,-0.421 1.304,-0.387 1.846,-0.091 1.421,0.778 2.398,2.017 2.213,3.683 -0.169,1.518 0.753,2.85 0.418,4.4 -0.177,0.815 0.382,1.643 1.098,2.296 0.348,0.318 1.067,0.67 0.805,1.355 -0.136,0.357 -0.06,0.611 0.008,0.929 0.345,1.615 0.872,3.19 0.958,4.867 0.021,0.434 -0.361,0.637 -0.271,1.122 0.098,0.526 0.273,1.054 0.295,1.616 0.048,1.174 0.529,2.286 1.601,2.785 0.897,0.417 0.997,1.057 1.064,1.814 0.052,0.588 0.347,1.155 0.077,1.787 -0.061,0.143 -0.01,0.562 0.395,0.781 0.496,0.269 0.749,0.792 0.898,1.43 0.166,0.712 -0.069,1.496 0.387,2.144 0.082,0.117 0.063,0.254 -0.051,0.308 -0.593,0.28 -0.807,0.836 -1.103,1.364 -0.493,0.876 -0.653,1.732 -0.208,2.664 0.177,0.371 0.245,0.792 0.394,1.163 0.434,1.082 0.265,2.363 1.179,3.3 0.285,0.293 0.469,0.425 0.877,0.407 0.925,-0.042 1.612,-0.671 2.448,-0.905 0.942,-0.264 1.364,-0.97 1.331,-1.926 -0.045,-1.325 -0.194,-2.656 0.103,-3.987 0.215,-0.971 0.383,-1.972 0.402,-2.962 0.04,-2.062 0.279,-4.098 0.526,-6.14 0.073,-0.607 0.585,-1.159 0.236,-1.827 -0.262,-0.502 -1.113,-0.497 -1.057,-1.257 -1.627,-0.925 -2.912,-2.3 -4.441,-3.369 -1.151,-0.803 -2.348,-1.546 -3.513,-2.326 -0.291,-0.195 -0.502,-0.412 -0.71,-0.647 -0.53,-0.603 -0.878,-1.34 -0.681,-2.121 0.23,-0.91 1.053,-1.358 1.867,-1.65 0.33,-0.119 0.789,-0.184 1.145,-0.116 0.765,0.145 1.254,0.732 1.736,1.314 1.436,1.733 2.901,3.441 4.591,4.938 0.204,0.181 0.35,0.577 0.727,0.384 0.363,-0.187 0.322,-0.619 0.244,-0.884 -0.307,-1.05 0.123,-1.571 1.066,-1.983 0.515,-0.224 0.985,-0.172 1.334,0.038 0.492,0.296 1.132,0.945 0.976,1.367 -0.279,0.755 0.23,1.414 -0.03,2.148 -0.096,0.273 -0.445,0.718 -0.113,1.177 0.237,0.328 0.173,0.765 -0.136,1.126 0.517,0.015 1.126,-0.133 1.384,0.203 1.168,1.528 2.726,2.626 4.164,3.836 1.887,1.586 3.925,2.991 5.887,4.489 0.653,0.499 1.223,1.386 2.093,0.292 0.026,-0.032 0.159,0.04 0.239,0.031 0.482,-0.057 0.749,-0.355 0.704,-0.817 -0.088,-0.909 0.312,-1.75 0.271,-2.668 -0.041,-0.903 0.23,-1.815 0.136,-2.737 -0.204,-2.014 0.188,-4.022 0.062,-6.044 -0.045,-0.715 -0.033,-1.384 -0.442,-1.984 -0.248,-0.363 -0.186,-0.898 -0.647,-1.134 0.455,-0.809 0.72,-1.708 1.683,-2.201 0.527,-0.269 1.096,-0.374 1.611,-0.657 1.297,-0.714 3.309,-0.191 4.361,0.878 0.568,0.577 0.908,1.509 1.786,1.657 0.707,0.12 0.966,0.671 0.957,1.075 -0.018,0.76 0.419,1.231 0.834,1.642 0.383,0.38 0.528,1.105 1.163,1.125 0.617,0.019 0.884,0.405 1.06,0.829 0.245,0.59 0.293,1.286 1.247,0.98 0.121,-0.039 0.401,0.251 0.531,0.441 0.477,0.692 0.809,1.551 1.909,1.402 0.079,-0.01 0.18,0.14 0.27,0.216 0.825,0.708 1.936,0.895 2.883,1.128 1.22,0.301 2.412,0.621 3.525,1.164 1.795,0.875 3.708,1.499 5.411,2.564 0.38,0.238 0.908,-0.038 0.933,-0.18 0.101,-0.581 0.735,-0.992 0.649,-1.511 -0.132,-0.799 -0.229,-1.602 -0.24,-2.399 -0.017,-1.392 -0.309,-2.8 0.384,-4.162 0.293,-0.575 0.562,-1.266 0.404,-1.966 -0.225,-0.99 0.137,-2.287 -1.378,-2.638 -0.285,-0.067 -0.246,-0.459 -0.156,-0.722 0.05,-0.152 0.2,-0.208 0.371,-0.138 0.561,0.23 1.248,0.482 1.289,1.115 0.055,0.829 0.584,1.558 0.367,2.486 0.755,-0.402 0.982,-0.996 0.8,-1.677 -0.104,-0.388 -0.312,-0.714 0.055,-1.046 0.149,-0.134 0.337,-0.173 0.489,-0.035 0.368,0.336 0.115,0.684 0.034,1.056 -0.074,0.347 -0.126,1.042 0.03,1.04 0.64,-0.005 1.018,0.466 1.538,0.648 1.068,0.375 1.641,1.883 1.341,2.981 -0.275,1.008 -0.978,1.806 -1.224,2.791 -0.193,0.773 -0.265,1.585 -0.3,2.384 -0.035,0.785 -0.756,1.276 -0.609,2.238 0.161,1.047 -0.256,2.189 -0.089,3.315 0.165,1.106 0.268,2.221 0.417,3.497 0.85,-0.959 2.008,-0.869 2.891,-1.387 1.68,-0.984 3.362,-1.98 5.204,-2.611 1.531,-0.524 2.666,-1.895 4.392,-1.976 0.177,-0.008 0.37,-0.191 0.51,-0.337 0.328,-0.341 0.638,-0.55 1.176,-0.425 0.519,0.121 0.86,-0.086 0.467,-0.688 -0.767,-1.174 -1.253,-2.533 -2.471,-3.414 -0.382,-0.276 -0.49,-0.903 -0.916,-1.259 -0.175,-0.147 -0.131,-0.52 0.097,-0.636 0.4,-0.203 0.445,-0.509 0.408,-0.878 -0.02,-0.199 0.066,-0.464 0.194,-0.462 0.708,0.012 1.326,-0.83 2.12,-0.111 -0.022,-0.228 -0.063,-0.353 -0.04,-0.463 0.074,-0.341 -0.164,-0.893 0.427,-0.921 0.648,-0.032 0.579,0.57 0.537,0.929 -0.095,0.802 0.372,1.118 0.969,1.412 0.48,0.236 0.945,0.508 1.401,0.789 0.482,0.298 0.935,0.773 1.423,-0.007 0.093,-0.149 0.314,-0.051 0.496,-0.004 1.219,0.309 1.538,0.131 2.242,-0.866 0.426,-0.605 0.96,-1.147 1.702,-1.415 0.988,-0.356 1.607,-0.128 1.958,0.764 0.459,1.167 0.385,2.319 -0.419,3.279 -0.526,0.629 -0.18,0.795 0.294,1.042 0.285,0.149 0.592,0.183 0.902,0.217 1.105,-0.239 2.133,0.322 3.121,0.773 1.147,0.524 2.334,0.958 3.545,1.307 0.499,0.144 0.995,0.265 1.433,0.556 0.215,0.141 0.413,0.315 0.645,0.429 0.255,0.124 0.525,0.109 0.792,0.184 0.512,0.144 0.95,0.532 1.434,0.751 0.582,0.263 1.2,0.443 1.81,0.627 0.157,0.048 0.233,0.164 0.254,0.289 0.529,0.16 1.055,0.325 1.569,0.513 0.929,0.34 2.058,0.207 2.782,1.181 0.245,0.33 0.794,0.418 1.15,-0.313 0.519,-1.071 1.114,-2.169 2.024,-2.963 0.913,-0.796 1.032,-1.938 1.369,-2.923 0.046,-0.136 0.087,-0.275 0.13,-0.413 0,-0.006 -0.002,-0.01 -0.002,-0.016 -0.005,-0.821 -0.122,-1.697 0.334,-2.431 0.093,-0.149 0.206,-0.291 0.339,-0.405 0.071,-0.061 0.146,-0.119 0.226,-0.167 0.018,-0.01 0.041,-0.02 0.064,-0.03 0.043,-0.107 0.082,-0.216 0.126,-0.323 0.003,-0.065 0.007,-0.129 0.008,-0.193 0.007,-0.238 0.005,-0.477 -0.003,-0.715 -0.008,-0.224 0.148,-0.337 0.32,-0.353 0.048,-0.873 0.174,-1.741 0.379,-2.591 0.031,-0.127 0.137,-0.215 0.258,-0.252 0.039,-0.122 0.097,-0.238 0.147,-0.357 -0.05,-0.018 -0.098,-0.044 -0.141,-0.083 -0.298,-0.278 -0.211,-0.747 0.089,-0.979 0.116,-0.09 0.257,-0.129 0.402,-0.148 0.015,-0.042 0.026,-0.085 0.047,-0.124 0.059,-0.113 0.146,-0.213 0.248,-0.296 -0.004,-0.105 0.028,-0.199 0.096,-0.286 l 0.894,-1.131 c 0.146,-0.185 0.493,-0.124 0.593,0.077 0.08,0.16 0.116,0.324 0.113,0.504 -0.002,0.12 -0.037,0.269 0.011,0.379 0.024,0.055 0.112,0.139 0.183,0.208 0.016,0.015 0.028,0.032 0.043,0.047 0.46,0.084 0.89,0.374 1.225,0.897 0.611,0.954 1.458,1.419 2.373,1.895 0.889,0.463 0.951,0.94 0.257,1.666 -0.161,0.168 -0.284,0.394 -0.362,0.616 -0.296,0.843 -0.878,1.485 -1.441,2.148 -0.516,0.604 -1.12,1.131 -1.448,1.894 -0.128,0.298 -0.258,0.594 -0.386,0.89 0.004,0.403 0.046,0.812 0.002,1.126 -0.11,0.788 -0.535,1.471 -0.88,2.172 -0.178,0.36 -0.305,0.718 -0.389,1.11 -0.086,0.403 -0.232,0.657 -0.563,0.903 -0.431,0.32 -0.484,0.997 -1.005,1.198 -0.196,0.449 -0.393,0.898 -0.589,1.347 1.479,0.45 2.993,0.833 4.443,1.386 0.709,0.271 0.996,0.04 1.101,-0.529 0.342,-1.867 1.39,-3.449 2.433,-4.89 0.828,-1.145 1.759,-2.32 2.806,-3.324 0.641,-0.614 1.369,-1.408 2.427,-0.823 0.585,0.324 1.116,0.374 1.694,0.085 0.314,-0.156 0.648,-0.099 0.974,-0.138 1.242,-0.15 2.487,-0.108 3.84,0.045 -0.591,-0.824 -0.453,-1.724 -0.84,-2.531 -0.293,-0.609 -0.772,-1.212 -0.87,-1.996 -0.107,-0.844 0.251,-1.682 -0.078,-2.51 -0.098,-0.246 0.152,-0.292 0.334,-0.248 0.358,0.086 0.573,0.287 0.727,0.666 0.146,0.358 -0.068,0.886 0.508,1.118 0,-0.338 10e-4,-0.637 0,-0.936 0,-0.24 0.106,-0.432 0.346,-0.447 0.253,-0.017 0.358,0.179 0.368,0.415 0.007,0.18 0.015,0.362 0.004,0.542 -0.048,0.763 0.578,1.203 1.065,1.16 0.887,-0.076 0.998,0.46 1.191,1.013 0.262,0.749 0.437,1.519 0.415,2.321 -0.054,1.915 0.632,3.764 0.542,5.672 -0.087,1.817 0.299,3.572 0.516,5.349 0.191,1.562 0.933,3.049 0.37,4.712 -0.29,0.855 -0.136,1.728 1.212,1.456 0.225,-0.045 0.523,0.115 0.747,0.248 1.233,0.732 2.686,0.953 3.913,1.707 0.367,0.226 0.834,0.288 1.244,0.453 0.303,0.121 0.372,-0.024 0.534,-0.258 0.326,-0.469 0.033,-0.951 0.143,-1.434 0.208,-0.919 0.363,-1.884 0.199,-2.832 -0.056,-0.32 0.022,-0.534 0.089,-0.82 0.218,-0.937 0.446,-1.898 0.451,-2.851 0.008,-1.084 0.194,-2.136 0.29,-3.202 0.033,-0.358 0.301,-0.582 0.602,-0.74 0.54,-0.283 0.894,-0.547 1.015,-1.306 0.145,-0.897 0.338,-1.786 0.52,-2.677 -0.008,-0.265 -0.025,-0.53 -0.051,-0.794 -0.095,-0.951 -0.271,-1.895 0.048,-2.824 0.099,-0.286 0.398,-0.33 0.592,-0.177 0.022,-0.12 0.048,-0.24 0.073,-0.359 0.061,-0.833 0.066,-1.667 -0.113,-2.491 -0.062,-0.289 0.184,-0.474 0.409,-0.469 0.041,-1.295 0.066,-2.59 0.087,-3.885 -0.124,-0.105 -0.186,-0.272 -0.071,-0.45 0.032,-0.049 0.055,-0.101 0.08,-0.153 0.002,-0.118 0.004,-0.236 0.006,-0.355 0.004,-0.2 0.069,-0.388 -0.009,-0.61 -0.075,-0.212 -0.093,-0.475 -0.074,-0.757 -0.009,-0.029 -0.019,-0.057 -0.024,-0.089 -0.013,-0.102 -0.011,-0.208 0,-0.312 -0.001,-0.354 0.007,-0.707 0.062,-1.058 -0.032,-0.091 -0.07,-0.18 -0.089,-0.276 -0.064,-0.318 -0.06,-0.629 -0.002,-0.95 0.043,-0.242 0.253,-0.308 0.437,-0.252 0.1,-0.166 0.354,-0.227 0.526,-0.136 0.212,0.111 0.335,0.287 0.413,0.487 0.813,-0.547 1.652,-0.812 2.709,-0.684 0.965,0.116 1.404,0.472 1.684,1.371 0.555,1.789 0.088,3.532 -0.331,5.193 -0.477,1.892 -1.018,3.818 -1.765,5.605 -0.715,1.711 -0.798,3.432 -1.007,5.177 -0.073,0.608 0.603,1.382 1.052,1.342 0.601,-0.053 2.437,-2.045 2.539,-2.699 0.171,-1.092 0.235,-2.189 0.28,-3.29 0.043,-1.04 1.055,-1.929 2.068,-1.86 0.373,0.026 0.732,0.207 0.682,0.57 -0.108,0.774 0.184,1.54 -0.081,2.32 -0.266,0.783 -0.267,1.63 -0.374,2.45 -0.137,1.038 -0.218,2.102 -0.727,3.064 -0.411,0.779 -0.118,1.441 0.705,1.729 0.451,0.158 0.919,0.291 1.34,0.509 0.511,0.263 1.02,0.527 1.53,0.788 0.52,-0.03 1.035,0.239 1.495,0.453 0.307,0.145 0.613,0.294 0.908,0.464 0.291,0.169 0.556,0.395 0.858,0.543 0.323,0.158 0.697,0.115 1.036,0.221 0.331,0.104 0.629,0.283 0.92,0.467 0.101,0.064 0.153,0.152 0.17,0.244 3.205,1.128 6.292,2.591 9.262,4.232 0.244,0.136 0.492,0.264 0.738,0.396 0.55,0.231 1.101,0.457 1.665,0.65 0.388,0.134 0.781,0.254 1.18,0.352 0.359,0.089 0.735,0.141 1.046,0.356 0.265,0.183 0.454,0.453 0.714,0.638 0.289,0.206 0.671,0.224 1.009,0.287 0.579,0.108 1.194,0.422 1.33,1.043 3.842,1.628 7.508,3.652 11.445,5.056 1.36,0.486 2.288,1.579 3.47,2.308 0.849,0.523 1.646,1.079 2.255,1.889 0.569,0.758 0.514,1.596 -0.282,2.138"
               style="fill:#000000;fill-opacity:1;fill-rule:nonzero;stroke:none"
               id="path1450" />
          </g>
        </g>
      </g>
    </g>
  </g>
</svg>
